<?xml version="1.0" standalone="no"?>
<!DOCTYPE svg PUBLIC "-//W3C//DTD SVG 20010904//EN"
 "http://www.w3.org/TR/2001/REC-SVG-20010904/DTD/svg10.dtd">
<svg version="1.0" xmlns="http://www.w3.org/2000/svg"
 width="1254.000000pt" height="1254.000000pt" viewBox="0 0 1254.000000 1254.000000"
 preserveAspectRatio="xMidYMid meet">

<g transform="translate(0.000000,1254.000000) scale(0.100000,-0.100000)"
fill="#000000" stroke="none">
<path d="M2945 11659 c-607 -59 -1156 -350 -1553 -824 -232 -277 -407 -644
-481 -1010 -48 -237 -46 -93 -46 -3550 0 -3097 1 -3266 18 -3380 101 -667 463
-1240 1017 -1610 331 -221 693 -344 1110 -375 186 -14 6360 -14 6536 0 586 47
1074 275 1479 692 333 342 536 749 622 1249 17 98 18 280 21 3339 2 2360 0
3273 -8 3374 -26 313 -89 543 -225 821 -118 242 -242 415 -438 613 -288 292
-657 502 -1057 602 -279 70 38 64 -3615 66 -1809 1 -3330 -2 -3380 -7z m3585
-1649 c975 -73 1866 -512 2472 -1220 117 -137 135 -169 117 -212 -13 -33 -51
-52 -82 -42 -11 3 -106 93 -211 199 -209 210 -361 338 -561 467 -449 292 -897
460 -1425 533 -159 22 -581 31 -751 16 -1013 -92 -1932 -618 -2502 -1431 -37
-52 -74 -105 -83 -118 -33 -48 -72 -62 -171 -62 -82 0 -95 3 -119 23 -20 17
-27 33 -27 63 -1 33 12 58 90 175 389 580 924 1027 1567 1311 521 230 1137
339 1686 298z m-3820 -2053 c108 -41 188 -131 247 -277 86 -214 461 -1130 558
-1365 62 -148 143 -346 180 -438 37 -92 71 -164 75 -160 4 4 93 224 198 488
444 1118 528 1330 598 1509 74 189 95 225 146 252 35 18 537 21 571 3 57 -30
77 -64 156 -263 263 -667 517 -1311 565 -1436 147 -377 222 -560 228 -560 4 0
15 17 24 38 41 96 249 601 377 915 l141 347 453 0 c249 0 453 -2 453 -5 0 -6
-230 -543 -655 -1530 -147 -341 -316 -735 -376 -875 -60 -140 -118 -269 -129
-287 -28 -46 -93 -90 -151 -102 -63 -14 -322 -14 -370 -1 -19 5 -47 22 -61 37
-17 18 -134 286 -336 773 -171 410 -372 891 -447 1070 -75 179 -141 336 -147
350 -8 21 -11 23 -18 9 -11 -19 -87 -200 -388 -924 -411 -989 -440 -1060 -477
-1151 -64 -161 -77 -168 -331 -172 -121 -2 -207 1 -233 8 -75 20 -92 45 -210
320 -60 140 -219 512 -354 825 -277 643 -916 2140 -1001 2344 -31 74 -74 165
-95 202 -22 37 -36 70 -33 73 3 4 184 5 401 3 345 -2 402 -5 441 -20z m6873 8
c242 -36 458 -146 623 -317 194 -200 281 -401 291 -673 10 -263 -55 -487 -199
-686 l-55 -76 68 -62 c140 -127 273 -347 319 -529 74 -293 26 -610 -133 -877
-59 -100 -186 -240 -285 -315 -83 -63 -263 -152 -362 -180 -169 -47 -228 -50
-850 -48 -374 2 -511 4 -380 8 113 3 192 7 175 8 -27 2 -28 4 -12 16 9 7 17
19 17 27 0 10 -3 10 -8 3 -8 -13 -64 -16 -56 -3 3 5 -4 9 -14 9 -11 0 -23 8
-27 18 -5 14 -4 15 6 5 23 -23 39 -15 39 21 0 19 -5 36 -11 38 -6 2 -11 17
-11 32 0 18 -3 23 -8 15 -5 -6 -5 -19 -2 -28 5 -14 3 -14 -11 -2 -9 7 -17 22
-17 33 0 11 -16 36 -35 55 -20 20 -33 38 -29 42 4 3 9 0 11 -7 3 -6 9 -10 14
-6 5 3 9 0 9 -6 0 -6 5 -8 10 -5 5 3 10 -1 10 -9 0 -9 5 -16 11 -16 6 0 9 6 6
14 -3 8 -2 16 3 18 4 2 2 9 -6 16 -8 7 -14 8 -14 2 0 -5 -5 -10 -11 -10 -5 0
-7 5 -4 10 4 6 1 17 -5 25 -6 8 -8 20 -4 26 5 8 3 9 -6 4 -23 -14 -30 18 -9
41 13 14 17 24 10 29 -6 3 -11 -1 -11 -9 0 -10 -6 -13 -15 -9 -9 3 -24 -2 -34
-11 -17 -15 -19 -15 -31 0 -12 13 -11 17 1 25 11 7 11 9 -3 9 -17 0 -22 -10
-19 -37 1 -7 -4 -10 -12 -7 -7 2 -14 11 -14 19 0 8 4 12 9 9 4 -3 8 2 8 10 0
9 6 16 13 16 8 0 7 3 -3 9 -8 6 -18 7 -24 4 -5 -3 -6 -2 -3 4 4 6 -5 21 -18
33 -27 25 -35 21 -9 -4 8 -9 11 -16 6 -16 -5 0 -17 11 -26 24 -12 18 -12 26
-3 29 6 3 -3 6 -20 6 -21 1 -33 6 -33 15 0 11 -8 12 -41 5 -44 -10 -63 -4 -55
17 5 13 -6 18 -26 15 -13 -2 -9 16 7 29 24 20 21 28 -29 82 -12 13 -21 17 -25
9 -4 -6 -23 -10 -43 -9 l-36 1 21 18 22 18 -23 1 c-13 0 -20 -4 -17 -10 3 -6
-5 -10 -19 -10 -13 0 -26 5 -28 12 -3 8 -61 14 -184 18 -101 4 196 7 687 8
830 2 869 3 944 22 173 44 277 151 305 312 37 209 -91 391 -313 448 -75 19
-114 19 -1022 20 -520 1 -945 2 -945 4 0 1 43 108 96 237 52 129 116 287 142
351 l47 118 745 0 c795 0 826 2 920 50 64 33 127 96 157 159 24 49 27 68 28
156 0 88 -3 107 -27 157 -54 115 -166 196 -305 218 -34 6 -554 10 -1290 10
-678 0 -1233 3 -1233 6 0 12 202 508 226 556 48 95 133 165 234 192 82 22
2118 23 2263 1z m-2290 -3030 c-3 -9 -8 -14 -10 -11 -3 3 -2 9 2 15 9 16 15
13 8 -4z m270 8 c-13 -2 -33 -2 -45 0 -13 2 -3 4 22 4 25 0 35 -2 23 -4z m60
0 c-7 -2 -19 -2 -25 0 -7 3 -2 5 12 5 14 0 19 -2 13 -5z m100 0 c-13 -2 -35
-2 -50 0 -16 2 -5 4 22 4 28 0 40 -2 28 -4z m-452 -56 c-10 -9 -11 -8 -5 6 3
10 9 15 12 12 3 -3 0 -11 -7 -18z m971 -31 c7 4 8 2 4 -5 -10 -15 -26 -4 -25
17 1 15 2 15 6 -1 2 -9 9 -14 15 -11z m128 -120 c0 -2 -7 -7 -16 -10 -8 -3
-12 -2 -9 4 6 10 25 14 25 6z m119 -82 c2 -2 -8 -4 -22 -4 -18 0 -27 5 -27 15
0 13 4 14 23 4 12 -6 24 -13 26 -15z m145 -129 c11 -8 17 -17 14 -20 -2 -3
-15 4 -28 15 -26 23 -15 27 14 5z m16 -97 c0 -18 -2 -20 -9 -8 -6 8 -7 18 -5
22 9 14 14 9 14 -14z m38 -93 c-3 -28 -23 -34 -32 -10 -3 10 1 15 12 16 10 0
12 3 4 6 -6 2 -10 9 -6 14 10 16 24 -1 22 -26z m42 -25 c0 -5 -2 -10 -4 -10
-3 0 -8 5 -11 10 -3 6 -1 10 4 10 6 0 11 -4 11 -10z m25 -80 c3 -5 -1 -10 -10
-10 -9 0 -13 5 -10 10 3 6 8 10 10 10 2 0 7 -4 10 -10z m-482 -27 c-7 -2 -21
-2 -30 0 -10 3 -4 5 12 5 17 0 24 -2 18 -5z m597 -556 c0 -1 -37 -38 -82 -82
l-83 -80 80 83 c74 76 85 87 85 79z m-200 -190 c0 -2 -10 -12 -22 -23 l-23
-19 19 23 c18 21 26 27 26 19z m-140 -121 c0 -2 -8 -10 -17 -17 -16 -13 -17
-12 -4 4 13 16 21 21 21 13z"/>
</g>
</svg>
